#!OML:ASF H:\Pregnant\Project 1\Capture day 1\Session 1\femalepreg.ASF
:FULLY-SPECIFIED
:DEGREES
441
root 1.60248 15.245 -11.9933 -164.792 13.0711 -189.109
lowerback -15.8754 0.586482 -7.08164
upperback -8.41395 3.32547 -4.25594
thorax -0.159288 2.43796 0.0141304
lowerneck -21.3532 1.28008 6.87563
upperneck 39.3442 2.28598 1.20224
head 18.5247 3.41176 0.27233
rclavicle 1.25731e-014 -6.16232e-014
rhumerus -15.4935 16.7316 -90.4751
rradius 57.4875
rwrist -31.372
rhand -13.7863 -24.7583
rfingers 7.12502
rthumb 12.3351 -54.3744
lclavicle 1.25731e-014 -6.16232e-014
lhumerus -53.7257 -10.9629 84.5835
lradius 22.291
lwrist 35.5118
lhand -31.6421 -5.53946
lfingers 7.12502
lthumb -4.90318 24.3838
rfemur -25.1438 9.65334 15.6375
rtibia 70.8787
rfoot 15.5835 5.74653
rtoes 5.15844
lfemur -42.3984 -9.17573 -31.0683
ltibia 25.1696
lfoot 0.722934 0.564295
ltoes -4.97363
442
root 1.60337 15.2626 -12.1335 -164.857 13.1032 -189.389
lowerback -15.6129 0.626294 -7.37131
upperback -8.34881 3.39903 -4.47254
thorax -0.235845 2.48008 -0.0522203
lowerneck -21.2163 1.17774 6.65578
upperneck 39.0918 2.12956 1.32582
head 18.3276 3.31393 0.317747
rclavicle -1.18774e-014 6.75868e-015
rhumerus -17.0762 16.0121 -90.8329
rradius 55.5644
rwrist -31.7837
rhand -13.4727 -28.8058
rfingers 7.12502
rthumb 12.6375 -58.4035
lclavicle -1.18774e-014 6.75868e-015
lhumerus -51.5377 -11.8263 84.7183
lradius 22.5936
lwrist 32.9646
lhand -31.6472 -6.32752
lfingers 7.12502
lthumb -4.90811 23.5956
rfemur -27.3534 9.2516 15.2578
rtibia 73.5191
rfoot 16.2354 5.82821
rtoes 6.61259
lfemur -41.556 -9.03044 -31.676
ltibia 24.8207
lfoot 0.217327 0.398866
ltoes -4.6847
443
root 1.60409 15.2816 -12.2737 -164.85 13.1976 -189.551
lowerback -15.4372 0.692807 -7.55762
upperback -8.29221 3.49832 -4.63488
thorax -0.274475 2.53127 -0.111717
lowerneck -21.0641 1.09128 6.46648
upperneck 38.8635 2.03113 1.36188
head 18.1466 3.23302 0.330467
rclavicle 1.82882e-014 -1.94809e-014
rhumerus -18.5267 15.2994 -91.1243
rradius 53.3452
rwrist -32.1857
rhand -13.4914 -32.2027
rfingers 7.12502
rthumb 12.6195 -61.8015
lclavicle 1.82882e-014 -1.94809e-014
lhumerus -49.3257 -12.5125 84.7029
lradius 23.0514
lwrist 30.5617
lhand -31.7882 -7.03527
lfingers 7.12502
lthumb -5.04426 22.8847
rfemur -29.6243 9.02978 15.0168
rtibia 76.0102
rfoot 16.2766 5.73065
rtoes 6.94098
lfemur -40.8742 -8.90281 -32.1147
ltibia 24.6651
lfoot -0.37333 0.369813
ltoes -4.41875
444
root 1.60511 15.3011 -12.4154 -164.834 13.3068 -189.661
lowerback -15.3194 0.761852 -7.69999
upperback -8.21946 3.59594 -4.7551
thorax -0.265544 2.57712 -0.148143
lowerneck -20.9195 1.02507 6.30116
upperneck 38.6714 1.98969 1.32973
head 17.9931 3.17095 0.321745
rclavicle -7.60351e-015 -6.55989e-014
rhumerus -19.8907 14.5876 -91.3464
rradius 50.8912
rwrist -32.5297
rhand -13.9355 -34.42
rfingers 7.12502
rthumb 12.1913 -64.0447
lclavicle -7.60351e-015 -6.55989e-014
lhumerus -47.1064 -12.9866 84.5491
lradius 23.6864
lwrist 28.4665
lhand -31.9812 -7.60117
lfingers 7.12502
lthumb -5.23061 22.3143
rfemur -31.866 8.92358 14.8658
rtibia 78.3394
rfoot 15.8127 5.47176
rtoes 6.20055
lfemur -40.2417 -8.81937 -32.466
ltibia 24.6253
lfoot -1.02424 0.436805
ltoes -4.17076
445
root 1.60721 15.3199 -12.5577 -164.831 13.3895 -189.762
lowerback -15.2285 0.808004 -7.84885
upperback -8.12699 3.66309 -4.84144
thorax -0.222747 2.60518 -0.14758
lowerneck -20.791 0.982551 6.16319
upperneck 38.5139 2.00098 1.24267
head 17.8674 3.12812 0.296338
rclavicle 2.83268e-015 1.86858e-014
rhumerus -21.1791 13.8997 -91.4975
rradius 48.239
rwrist -32.7819
rhand -14.7006 -35.6003
rfingers 7.12502
rthumb 11.4535 -65.2674
lclavicle 2.83268e-015 1.86858e-014
lhumerus -44.9137 -13.2384 84.2863
lradius 24.5329
lwrist 26.8331
lhand -32.1806 -8.13767
lfingers 7.12502
lthumb -5.42309 21.7729
rfemur -34.0578 8.87598 14.7693
rtibia 80.5096
rfoot 14.9718 5.05809
rtoes 4.49518
lfemur -39.6052 -8.77229 -32.7929
ltibia 24.6297
lfoot -1.70003 0.532746
ltoes -3.93103
446
root 1.61083 15.3372 -12.6998 -164.838 13.4021 -189.883
lowerback -15.1587 0.80987 -8.03172
upperback -8.01327 3.67701 -4.90334
thorax -0.147546 2.60545 -0.108098
lowerneck -20.6971 0.960979 6.04378
upperneck 38.3913 2.05109 1.12357
head 17.7732 3.1005 0.263613
rclavicle -3.08116e-014 3.26007e-014
rhumerus -22.4009 13.2247 -91.5745
rradius 45.4352
rwrist -32.8524
rhand -15.8818 -35.3252
rfingers 7.12502
rthumb 10.3142 -65.0523
lclavicle -3.08116e-014 3.26007e-014
lhumerus -42.7897 -13.2855 83.9535
lradius 25.6463
lwrist 25.7826
lhand -32.3665 -8.64194
lfingers 7.12502
lthumb -5.60259 21.264
rfemur -36.2063 8.82326 14.7018
rtibia 82.5253
rfoot 13.9134 4.50924
rtoes 2.35259
lfemur -38.9493 -8.76003 -33.135
ltibia 24.6289
lfoot -2.37091 0.58896
ltoes -3.67035
447
root 1.616 15.3523 -12.8412 -164.842 13.3235 -190.025
lowerback -15.1032 0.759684 -8.24689
upperback -7.88624 3.62783 -4.94277
thorax -0.0509305 2.57405 -0.0348132
lowerneck -20.6747 0.964821 5.9805
upperneck 38.3284 2.13943 0.951423
head 17.7344 3.09147 0.208828
rclavicle -2.06239e-014 -3.06128e-014
rhumerus -23.572 12.5534 -91.5757
rradius 42.536
rwrist -32.6406
rhand -17.2761 -34.0384
rfingers 7.12502
rthumb 8.96892 -63.8278
lclavicle -2.06239e-014 -3.06128e-014
lhumerus -40.7888 -13.1776 83.606
lradius 27.0745
lwrist 25.4112
lhand -32.5732 -9.15878
lfingers 7.12502
lthumb -5.80217 20.7418
rfemur -38.3294 8.739 14.658
rtibia 84.386
rfoot 12.7614 3.8601
rtoes 0.206322
lfemur -38.2901 -8.77531 -33.4967
ltibia 24.6146
lfoot -3.02435 0.570003
ltoes -3.37884
448
root 1.6226 15.3649 -12.9812 -164.808 13.1581 -190.168
lowerback -15.0636 0.660725 -8.478
upperback -7.76774 3.51952 -4.95615
thorax 0.0460536 2.51501 0.0665386
lowerneck -20.7146 0.985344 5.95906
upperneck 38.3269 2.25801 0.735402
head 17.7489 3.09775 0.136854
rclavicle -9.83984e-015 -1.90833e-014
rhumerus -24.6865 11.8751 -91.4963
rradius 39.538
rwrist -32.0214
rhand -18.7399 -32.183
rfingers 7.12502
rthumb 7.55619 -62.0281
lclavicle -9.83984e-015 -1.90833e-014
lhumerus -38.9621 -12.998 83.3047
lradius 28.8497
lwrist 25.7595
lhand -32.8625 -9.7169
lfingers 7.12502
lthumb -6.08148 20.1758
rfemur -40.4688 8.62887 14.6462
rtibia 86.0861
rfoot 11.6051 3.1625
rtoes -1.67898
lfemur -37.6813 -8.80076 -33.8578
ltibia 24.6076
lfoot -3.65885 0.455688
ltoes -3.05417
449
root 1.63025 15.3756 -13.1203 -164.707 12.9127 -190.265
lowerback -15.0532 0.526785 -8.67457
upperback -7.66849 3.36433 -4.93687
thorax 0.141849 2.4335 0.177009
lowerneck -20.8149 1.01513 5.96586
upperneck 38.3856 2.39497 0.493262
head 17.8149 3.11531 0.0554416
rclavicle -5.90887e-014 3.10104e-014
rhumerus -25.7592 11.17 -91.3261
rradius 36.4736
rwrist -30.8644
rhand -20.2256 -29.8709
rfingers 7.12502
rthumb 6.12198 -59.7624
lclavicle -5.90887e-014 3.10104e-014
lhumerus -37.3317 -12.8209 83.0836
lradius 30.9764
lwrist 26.8224
lhand -33.2879 -10.3471
lfingers 7.12502
lthumb -6.49214 19.5334
rfemur -42.6394 8.51201 14.6987
rtibia 87.6064
rfoot 10.5226 2.4441
rtoes -3.1081
lfemur -37.1674 -8.83257 -34.1666
ltibia 24.6471
lfoot -4.28575 0.254934
ltoes -2.69042
450
root 1.63871 15.3847 -13.2595 -164.541 12.5959 -190.289
lowerback -15.0635 0.37149 -8.80553
upperback -7.59334 3.17332 -4.88128
thorax 0.228089 2.3343 0.284213
lowerneck -20.9508 1.04893 5.98751
upperneck 38.4862 2.54219 0.241069
head 17.9158 3.14062 -0.0287633
rclavicle -4.22417e-014 -1.47101e-014
rhumerus -26.8193 10.409 -91.0549
rradius 33.396
rwrist -29.0749
rhand -21.4555 -27.889
rfingers 7.12502
rthumb 4.93449 -57.8115
lclavicle -4.22417e-014 -1.47101e-014
lhumerus -35.8989 -12.6895 82.9466
lradius 33.4217
lwrist 28.5026
lhand -33.7873 -10.9791
lfingers 7.12502
lthumb -6.9742 18.886
rfemur -44.821 8.40213 14.8342
rtibia 88.9288
rfoot 9.57498 1.74937
rtoes -4.04304
lfemur -36.7562 -8.87706 -34.3888
ltibia 24.7594
lfoot -4.91698 -0.00489419
ltoes -2.29946
451
root 1.64795 15.3926 -13.399 -164.314 12.2253 -190.227
lowerback -15.0922 0.204929 -8.85813
upperback -7.5435 2.95654 -4.78686
thorax 0.302256 2.22196 0.384943
lowerneck -21.0911 1.07969 5.99107
upperneck 38.6 2.68645 0.0142295
head 18.0258 3.16711 -0.0982377
rclavicle 2.80783e-014 -2.42517e-014
rhumerus -27.8903 9.571 -90.6692
rradius 30.3591
rwrist -26.6176
rhand -22.2883 -26.5858
rfingers 7.12502
rthumb 4.13036 -56.5255
lclavicle 2.80783e-014 -2.42517e-014
lhumerus -34.641 -12.6152 82.88
lradius 36.1317
lwrist 30.6618
lhand -34.324 -11.6141
lfingers 7.12502
lthumb -7.49229 18.2332
rfemur -47.0022 8.3178 15.055
rtibia 90.0419
rfoot 8.7528 1.0861
rtoes -4.58444
lfemur -36.4483 -8.93296 -34.5065
ltibia 24.9572
lfoot -5.55843 -0.298193
ltoes -1.94839
452
root 1.65768 15.4 -13.5397 -164.065 11.7806 -190.098
lowerback -15.1084 0.0250338 -8.83882
upperback -7.50734 2.70696 -4.66083
thorax 0.360568 2.09207 0.473252
lowerneck -21.2162 1.10867 5.9606
upperneck 38.7004 2.82383 -0.166379
head 18.1236 3.19198 -0.142677
rclavicle 8.97016e-015 -1.70955e-014
rhumerus -28.9903 8.62008 -90.1482
rradius 27.423
rwrist -23.5209
rhand -22.6938 -25.995
rfingers 7.12502
rthumb 3.73878 -55.942
lclavicle 8.97016e-015 -1.70955e-014
lhumerus -33.5185 -12.5795 82.8525
lradius 39.0375
lwrist 33.1276
lhand -34.8424 -12.1298
lfingers 7.12502
lthumb -7.99263 17.6991
rfemur -49.1212 8.22718 15.3449
rtibia 90.94
rfoot 8.04921 0.470608
rtoes -4.87545
lfemur -36.1877 -9.02494 -34.5362
ltibia 25.2235
lfoot -6.20737 -0.612389
ltoes -1.65483
